<svg xmlns="http://www.w3.org/2000/svg" viewBox="0 0 334.35 120.89"><g id="Layer_2" data-name="Layer 2"><g id="Layer_1-2" data-name="Layer 1"><path d="M334.35,117.84s-14.12-28.41-44.78-57.5l-7.33,36L278.4,50.39a227.16,227.16,0,0,0-37.61-25.64V54.6L227.71,18.25A215.09,215.09,0,0,0,161.4,0s-4,11.21-4.88,30l33.79,17.49-33.83-4.21a173.35,173.35,0,0,0,5,35.12l37.14,8.7-33.78,3.18A201.16,201.16,0,0,0,176,117.89Z" style="fill:#00eaf2"/><path d="M53.84,105.81a178,178,0,0,1,17.27,15.08H180.78S90.5,63.91,0,76.79c0,0,19.6,5.85,42.73,21.1H73.89Z" style="fill:#00eaf2"/></g></g></svg>