<svg xmlns="http://www.w3.org/2000/svg" viewBox="0 0 474.68 257.65"><g id="Layer_2" data-name="Layer 2"><g id="Layer_1-2" data-name="Layer 1"><path d="M250.79,148.89q4.78-7,8.73-13.78l-38.11-7L266.67,122c21.3-42.63,19-73.44,19-73.44-19.17-2.63-40.36-1.27-62.28,2.76l-66.28,68.1L196,57.53c-15.51,4.18-31.11,9.38-46.38,15.17l-43.88,54,20.92-44.73c-16.58,7-32.45,14.5-47,21.82l-32.46,82.9,6-69.07C21.06,135,0,148.8,0,148.8V257.6l122.85,0c45.25-24.63,78-50.83,101.59-76h-43Z" style="fill:#00eaf2"/><path d="M474.68,255.6a224.65,224.65,0,0,0-57.43-37.29l-50.17,19.3,24-29.07a246.15,246.15,0,0,0-66-10.29L262.3,237.61l26.14-37.92C197,208.79,122.13,255.6,122.13,255.6Z" style="fill:#00eaf2"/><path d="M18.66,77.26a252.87,252.87,0,0,1,16.45-37L17,35.92l23.25-4.3C48.83,18.19,59,7.17,70.79,1.22c0,0-33.94-6.93-70.79,12.22V148.49A447.58,447.58,0,0,1,17.12,81.62l-5.79-3Z" style="fill:#00eaf2"/></g></g></svg>