<svg xmlns="http://www.w3.org/2000/svg" viewBox="0 0 313.13 592.68"><g id="Layer_2" data-name="Layer 2"><g id="Layer_1-2" data-name="Layer 1"><path d="M287.13,410.19,276,365.72q-8.65-3.27-16.78-5.94l6.33,34.36L244.34,355.2A302.29,302.29,0,0,0,187,344.25l8.47,15-17.91-15.57c-19.36-.81-29.64,1.44-29.64,1.44a262.48,262.48,0,0,0,16.77,51.41l30.78,9.23H168.78a467.34,467.34,0,0,0,29.58,52.44l53,15.26-45.8-4.33c9,13.16,18.28,25.73,27.52,37.46l49,3.74-39.3,8.32q6.12,7.46,12.05,14.32L298.72,524l-33.93,20.24c26.6,29.78,47,48.43,47.34,48.43V381c-8.63-3.94-16.64-7.43-25-10.6Z" style="fill:#00eaf2"/><path d="M0,225.16a214.17,214.17,0,0,1,32.13-6.47h0l62.94-59.3L63.32,217.22a217.43,217.43,0,0,1,51.85,7.9l7-61,7.18,65.43a277,277,0,0,1,49,22.61L180.1,211l9.19,47.78c7,4.47,13.8,9.15,20.31,14l-13.91-87.09L239.22,297c46,41.34,72.91,83.25,72.91,83.25V123C69.7,62.18,0,225.16,0,225.16Z" style="fill:#00eaf2"/><path d="M178,16.07c9.89-1.08,19.89.64,29.74,4.31h0l38.58-9.5-25,15.81a161.12,161.12,0,0,1,25.75,18l12-23V55.57c31.43,30.38,54,67,54,67V21.74C231.41-23.61,178,16.07,178,16.07Z" style="fill:#00eaf2"/></g></g></svg>