<svg id="Layer_1" data-name="Layer 1" xmlns="http://www.w3.org/2000/svg" xmlns:xlink="http://www.w3.org/1999/xlink" viewBox="0 0 1932 1122.6"><defs><clipPath id="clip-path" transform="translate(6 11)"><rect width="1920" height="1080" style="fill:none"/></clipPath><clipPath id="clip-path-2" transform="translate(6 11)"><rect x="-6" y="-11" width="1931" height="1102" style="fill:none"/></clipPath></defs><g style="clip-path:url(#clip-path)"><g style="clip-path:url(#clip-path-2)"><rect width="1931" height="1102" style="fill:#00c1be"/><path d="M260.07,1091.05s227.85-7.81,271.72-216,86.33-352.1,17-445,62-337.75,186-206.13,861.19,96.24,782.7,7.08S1706-11,1923.44-11H-6V1091Z" transform="translate(6 11)" style="fill:#33c6be"/><path d="M1446.84-11S1272.49,255.19,994.3,192.89,423.08,79.62,310.49,283.51s368.8,181.63,184.74,454.7-218,353.3-501.23,353.3V-11Z" transform="translate(6 11)" style="fill:#00b5b0"/><path d="M1822.88,246.7c-74.51,0-181.16,9.71-266.08,56-126.12,68.7-333.1,101-472,107.75-83.73,4.08-176.08,36.52-253.38,89C768,542.52,686.69,618.14,659.8,733.77c-14.43,62.05-17.94,119.63-21,170.44-2.78,45.62-5.69,75.73-10.53,95.87v0s-.52,5-4,13.16a54.35,54.35,0,0,1-6.16,12c-10.7,17.77-32.54,42.46-77,65.74H725v-51.83c11.75-37.12,14.35-79.74,17.33-128.66,2.85-46.74,6.08-99.71,18.54-153.28,34.88-150,213.46-237.65,329-243.28,157.06-7.66,375.26-43.27,516.63-120.28,65.73-35.81,154-43.32,216.41-43.32,19.25,0,36.69.71,51.24,1.65H1926V252.7A864.88,864.88,0,0,0,1822.88,246.7Z" transform="translate(6 11)" style="fill:#fff"/><path d="M1926,304.42s-207.94-31.12-344.26,43.22-352.42,107.18-494.18,114.1S750.45,574.11,710.69,745.25s8.65,319.82-105.45,345.75H1926Z" transform="translate(6 11)" style="fill:#00b4b4"/><path d="M1581.74,347.64c-136.33,74.34-352.42,107.18-494.18,114.1S750.45,574.11,710.69,745.25s8.65,319.82-105.45,345.75H784.6s45.38,10.37,51.86-274.44c4.44-195.22,215.6-226.15,418.79-244.84C1530.12,546.45,1648.6,441,1743.91,426.3c68.52-10.57,182.09,0,182.09,0V304.42S1718.06,273.3,1581.74,347.64Z" transform="translate(6 11)" style="fill:#00887c"/><path d="M1916,429.49c-2.8,13.9-32.09,20.57-36.13,21.43a389.65,389.65,0,0,1-70.3-4.27c-33.24-5.56-39.46-22.36-38.72-35.71,6.66-25.26,14.32-49.23,22.08-71,5.29-14.82,10.75-29,16.24-42.5-1.8,0-3.6.06-5.42.11a966.54,966.54,0,0,0-35.21,102.66c-24.67,21.57-51.31,15.75-52.59,15.46a256.29,256.29,0,0,1-26.07-16.25c-28.16-20-50.41-44.42-68-70.58-1.64.63-3.28,1.28-4.91,1.93,18,27,40.87,52.2,69.94,72.89,3.61,2.57,7.31,5,11.05,7.39l-.1,0a57.87,57.87,0,0,0,6.14,3.8q9,5.4,18.45,10.07c13.48,11.92,27.3,33.36,26.33,71.08h0c-.67,5.25-1.24,10.5-1.75,15.75v-.38c-2.14,34.35-28.32,14.61-33.34,10.49l-.51-.42-.32-.28,0,0q-20.37-16.92-43.56-35.16c-40.4-31.6-79.27-44.74-119.78-40.06-25.18-2.83-30.08-9.82-31-12.41-.08-.31-.15-.64-.23-.95v0h0c-4.3-17.73-8.59-34.68-12.78-50.66-1.61.62-3.22,1.24-4.85,1.85,0,.13.07.25.1.38.87,3.52,7.6,31.53-3.68,14-12-18.74-4.23,12.11-.36,38.06,2.62,17.56-9.75,29.07-18,34.69-2.3,1.3-4.6,2.61-6.9,4l-.09,0h0c-37.92,22.71-76.23,56.06-116.22,90.87-61,53.11-129.6,112.85-213.55,150.67-34.68,15.88-26.78-10.81-23-20.59,30.62-72.73,70.83-131.35,108-150.61,14.51-7.52,27.68-8.43,39.12-2.72,33.09,16.51,80.22,4.32,109.65-28.34,13-14.48,34.54-47.23,26.42-99.66l-5.09,1.3v0c-4.06,1.11-9,2.33-14.64,3.62-42.22,10.25-85.34,18.48-127.23,24.88h0c-30.57,9,109.35-9.46,130-3.84,15.81,4.3,4.39,38.7-1.85,54.65a99.75,99.75,0,0,1-11.43,15.54c-27.48,30.51-72.94,42.44-103.52,27.18-11.58-5.78-24.52-5.66-38.54.3a43.64,43.64,0,0,0-12.06,6.42,126.47,126.47,0,0,0-16.87,13c-15,8.91-30.85,16.12-34.41,9.19-7.1-13.83-55.83-85.2-102.81-11.89-10.08,15.74-18.5,28.23-25.57,37.79h0l3.27,9.2c11.61-17.82,34.79-44.3,47.3-57.38,24.22-25.3,34.55-1.94,49.4,10.38s4.52,18.17-18.08,20.76-62.63,35.42-62.63,35.42c-4.19,2.51-7.71,4.42-10.65,5.82l2.59,7.28h0c3-1.25,6.08-2.71,9.35-4.45,82.65-44.07,129.78-66.73,97.1-6.27l.07-.1c-15.87,25-30.87,54.4-44,86.35v0c-14.07,31.15-36.66,37.66-46.1,39q-34.12,3.12-64.52-8.1c-13.87-8.09-32.76-19.2-46.9-27.84-1.37-1.17-2.69-2.42-4-3.63l-28.65,21.61c34.47,18.95,80.49,18.43,98.21,20.69h0q7,1.49,14.23,2.28h0c.08,0,.2,0,.29,0,2.53.27,5.07.49,7.63.64,13.83,3,40,17.61,30.59,87.22l.06-.17c-1.06,5.63-2.06,11.25-3,16.86,0,0-17.47,62.15-82.69,42s-160.39,87.56-152.45-9.74c4.26-31.38,9.58-61.24,15.69-89.6.86-2.08,10.6-35.35,25.3-58.08L862.07,721q-8.88,31.37-16,63.64l.06-.45s-18.79,72.44-34.29,121C796.49,953,747,921.79,745.78,921a269.31,269.31,0,0,1-49.39-39.19c-1.24,18.81-2.21,36.84-3.39,53.88,7.58-33.51,25.25-27.58,25.25-27.58l0,0a285.78,285.78,0,0,0,34.45,23h0a295.61,295.61,0,0,0,27.48,13.81c2.4,1,4.88,2.09,7.41,3.11,11.25,7.72,21.19,18,22.52,30.5,3.23,30.49-31,96.11-16.79,78.87s24.12-7.65,24.87,19.65c0,0,0-.21,0-.58.08,4.82.22,9.67.36,14.51H963.89c-52.28-.58-70.62-7.36-94.41-33.58-25-27.53-14.63,29.25-34.43,17.14s-6-66.6,5.16-87.36c7.49-13.89,35-16,52.42-15.79,3.2.21,6.43.4,9.72.53,1.84.11,3.55.17,5,.17h-.06a459,459,0,0,0,94-7.47l-.18,0s60.61-10.75,88.71,46c1.58,4.29,3.2,8.54,4.88,12.69,5.21,25.3-2.28,48.88-12.61,67.62H1106q7.44-6,15.22-11.93c.6,1.1,1.21,2.21,1.81,3.29,1.64,2.93,3.29,5.8,4.93,8.64h12.09c-.48-7.45,1.74-15.15,10.62-20,22-12,117.31-59.69,84.81-52.55-32.22,7.07,24.38-26.49,34.37-31.13,61.42-28.31,130.85-48,201.42-43.7,1.12.18,73.39,11.69,71.89,40.71s-36.6,105.73-37,106.67h6.61q26.6-34,42-85.11v0s14.13-45,66.59-11.22c0,0-2.76-2.08-7.21-5.2A694.81,694.81,0,0,1,1747.86,1091h32.71c.11-7.49,2.11-12,8.4-6.7a62.26,62.26,0,0,1,6.7,6.7h18.54c0-.08,0-.13-.06-.22-5.81-24.65-48.58-114.18-54.31-77.85S1626.5,904.15,1690.2,923s145.49-2.74,85.33-49.51c-58.32-45.33-203.41-82.93-147.54-88,50.31,3.65,99,17.31,149.57,43.17,14.6,8.38,40.17,27.59,47.27,61.91a802.21,802.21,0,0,1,11.13,93.6,499.27,499.27,0,0,1-.35,62.53c-.18.77-7.3,31.85-13.67,44.32h12.83c.3-1.42.62-2.81.89-4.25,3.34-11.29,7.93-20.81,12.07-8.44,7.63,22.8,42-93.93,50.37-130.91,4.47-19.72,16.57-14.57,26.9-5.47v-7.74c-28.21-30.28-60.5-58.68-97.18-82.41-2-1.29-4-2.54-6-3.8a1348.8,1348.8,0,0,0-54.49-185.27,254.65,254.65,0,0,1-9.44-31.69c-.3-1.68-12-69.44,37.06-32.21q7.35,6.36,14.19,12.17l.1.09,0,0c40.16,34,68.31,53,95,49.39a53,53,0,0,0,20.81-7.78V646.5c-7.21,4.94-14.3,7.8-21.5,8.78-31.41,4.26-66.84-26.76-125.52-78.17l-7.2-6.3h0c-19-16.66-19.54-44-19.09-53.44q1.2-14,3.15-27.95c3-13.35,16-41.85,72.31-35.23h0a396.7,396.7,0,0,0,41.36,2.1c3.74,0,7.52,0,11.31-.15,4.62,0,45.21,2,45.21,76.06V370.42S1919,414.54,1916,429.49ZM923.51,967.8c-39.39.84-73.17-3.91-101.52-11.36,0,0,9.28-33.48,37.15-23.1s81.68-49.27,111.51-35.66S999.2,964,923.51,967.8Zm102.89-13.67c-.28-.14-49.19-25.35-19.45-32.46s60.5,21.27,60.5,21.27C1053.32,947.31,1039.65,951,1026.4,954.13ZM1891,908.88q11.54,10.64,22.33,21.73c-42.4-40.13-36.37,93.49-49.34,120s-22.75-25.83-22.75-25.83h0q.39-19.14-.73-40.06c-1-18.22-2.88-37.5-5.57-57.54l.08.41c-.13-1.11-.3-2.3-.49-3.52-.23-1.66-.48-3.34-.72-5C1832.06,900.65,1834.11,862.56,1891,908.88ZM1608.86,460.74s-1.35-.81-3.82-2c18.67,6.3,37.94,16.89,58.11,32.58s38.67,30.83,55.64,45.07c9.36,10.88,20.11,29.26,25.21,59.18v-.09q.63,6.12,1.48,12.17c-.17-1-.3-1.89-.37-2.64,0,0-13.73,89.11-21.51,65.13s-33.06-145.86-86.22-90.11-70.6,135.67-77.39,89.26v.09q-4.42-33.23-10.4-68.41c-4.58-26.83-9.64-53.21-14.95-78.79l.91.16S1524.58,431.56,1608.86,460.74ZM1488.11,529c53.41,67.08,62.08,99.75,63.12,104.51,8.12,52.84,13.47,102.18,16,147.67-47.72,3.38-97.81,14.33-152.82,31.18-8.82-1.59-15.93-6.26-17.83-16.56-6-32.55-80.35-4.89-65.66-26.93S1430.1,456.17,1488.11,529Zm-272,151.77.62-.41q7.42-4.82,14.7-9.78c17.08-11.39,21.15-14.23,16.74-11.76,22.48-16.23,43.8-33.31,64.18-50.39,6.74-5.53,110-89.89,79-40.54-32,51-67,169.43-75,145.23S1112.6,749.58,1216.12,680.79ZM1079.41,807.64c1.85-7.93,3.87-15.82,6-23.69,7-19.29,25.55-51,73.44-58.71,70-11.24,208.32,19,158.18,43.65s116.82,6.29,38.78,49.13-98.38,50.8-98.38,50.8l2.44-1c-37.82,14.9-78,31.28-121.05,48.85l-11.63,4.75c-3,1.22-6,2.37-9,3.54-16.81,4.81-38.42,5.76-42.37-19C1069.32,864.72,1079.24,808.65,1079.41,807.64Zm170.53,182.7a749.66,749.66,0,0,0-74.69,42.55q-13,8.38-25.38,17.06l.27-.22c-28.61,19-42.37-1.71-43.38-3.32a437.51,437.51,0,0,1-28.67-78.68c-1-7.77.67-22,23.55-30.86l-.21.07q13.62-4.94,27.73-10.67l11.63-4.75c115.09-46.95,209.51-85.45,292.77-109.38a135.09,135.09,0,0,0,26.87-7.3q16.33-4.17,32.13-7.5c3.23-.33,57.76-5.53,64.09,17.24,6.52,23.46-187.31,107.73-161.38,72.73s-86,70.09-145.53,103.11Zm317.33-100c-.15,2.3-.31,4.57-.48,6.85-1.3,18.68-10,34.39-15.44,46.73-2.25,5.07-10.7,6-20,5.38-48.56-13.23-100.55-14.42-155.33-3.38-6,1.21-12,2.61-18.07,4.11.64-.19,1.21-.35,1.63-.44,0,0-44.46-5.35-3.76-25.7s169.71,5.41,141.84-19.79,70.54-106.05,70.73-39.24Q1568.06,877.86,1567.27,890.32ZM1762,914.44c-19.2,20.65-56.86,6.15-36.12-5.44S1700,854.88,1700,854.88C1734.53,850.54,1781.21,893.79,1762,914.44Zm-59.46-13.52c-44.73-16.85-54.41,7.13-13.59,71.31s80.36,109.73,32.07,88.9l.55.54a697.38,697.38,0,0,0-98.81-71.4l.36.15s-37.7-27-48.5-33.53c-5.33-3.2-6.41-14.26-6.13-24.66q2.57-20,4-41.61c1.37-21.83,1.81-45,1.36-69.39l0,0s0-.24,0-.62c0-.66,0-1.32,0-2,0-8.12,1.74-32.29,23-27.65C1622.17,796.55,1747.28,917.78,1702.55,900.92Zm79.23-176.72c-1.86-5.7-4.09-12.57-6.52-20.1q4.41,12.9,8.54,25.82c-.6-1.77-1.28-3.69-2-5.72,2.31,7.06,4,12.32,4.9,14.87,11.18,35.9,20.71,71.57,28.3,106-83-50.75-159.35-69.19-242.63-64.23-1.24-22.81-3.24-46.62-5.89-71.29l0,.09S1626.7,570.34,1672.08,605s35.5,130.38,61.75,84.91C1752.94,656.8,1772.54,698.87,1781.78,724.2Z" transform="translate(6 11)" style="fill:#00c6c1"/><path d="M822.2,956.44a48.2,48.2,0,0,1,6.46-13.24c1-10.92,2-22.62,2.81-35.19-1.77-6.33-2.3-15-1.35-26.55,1.28-9.39,2.68-18.6,4.15-27.72q.66-17.37,1.1-36.45c.08-3.39.23-6.72.43-10C829,832.5,817.43,874.32,807.28,906c-15.37,47.88-65.07,16.69-66.29,15.92a269.41,269.41,0,0,1-49.58-39.16q-.46,7-.89,13.9v.09c-.29,4.62-.56,9.19-.84,13.7s-.54,8.84-.81,13.17v0q-.42,6.57-.86,12.95h0c7.62-33.49,25.35-27.56,25.35-27.56l0,0a287.35,287.35,0,0,0,34.59,23h0a294.28,294.28,0,0,0,27.59,13.8c2.41,1.06,4.9,2.09,7.44,3.12,11.29,7.71,21.27,17.94,22.61,30.46,3.24,30.47-31.12,96-16.86,78.82,8.91-10.76,16.13-11.06,20.49-3.13,6.49-19.86,13-50.41,18-97.38C825.55,957.25,823.84,956.87,822.2,956.44Z" transform="translate(6 11)" style="fill:#009686"/><path d="M1547.71,447.18c-25.28-2.82-30.2-9.81-31.15-12.39-.08-.32-.16-.64-.23-1v0h0c-4.32-17.72-8.62-34.66-12.82-50.63-1.63.62-3.24,1.25-4.87,1.86,0,.12.06.25.1.37.87,3.53,7.63,31.51-3.7,13.95-12.07-18.72-4.25,12.1-.36,38,2.63,17.55-9.79,29.05-18.1,34.67-2.3,1.29-4.61,2.61-6.92,4l-.09,0h0c-34.37,20.49-69.07,49.65-105,80.72,24.73-4.79,47.91-10.21,69.69-16,17.51-22.28,35.09-31.39,50.89-15.12,18.29-6,35.49-12.15,51.72-18.39,1.18-24.46,11.6-68,73.65-46.51,0,0-1.35-.81-3.82-2A165.77,165.77,0,0,1,1629,468.2l6-2.71C1605.94,449.84,1577.26,443.79,1547.71,447.18Z" transform="translate(6 11)" style="fill:#009686"/><path d="M1252.21,445.56c-30.7,9,109.78-9.45,130.52-3.84,15.87,4.3,4.41,38.68-1.86,54.6a99,99,0,0,1-11.47,15.54c-27.58,30.48-73.23,42.4-103.93,27.15-11.62-5.77-24.62-5.65-38.7.3a43.91,43.91,0,0,0-12.11,6.43,127.28,127.28,0,0,0-16.93,13c-15,8.9-31,16.1-34.55,9.18-7.13-13.82-56-85.13-103.21-11.87-10.13,15.72-18.58,28.2-25.68,37.76h0l3.29,9.2c11.65-17.81,34.92-44.27,47.49-57.34,24.31-25.28,34.68-1.94,49.59,10.38s4.54,18.15-18.15,20.74c-11.9,1.36-28.61,11-41.82,19.92,14.5-3.06,29.34-5.77,44.41-8.21,24.24-10.77,39.73-14.39,43.09-6.22q11.1-1.42,22.28-2.72c13.15-15.08,26.47-26.5,39.42-33.17,14.57-7.51,27.78-8.43,39.27-2.72,33.22,16.5,80.54,4.32,110.09-28.32,13.09-14.46,34.68-47.19,26.52-99.58l-5.11,1.3v0c-4.08,1.11-9.07,2.32-14.69,3.62-21.19,5.12-42.59,9.73-64,13.86l-.38.07q-7.76,1.5-15.51,2.92l-2,.36c-4.63.84-9.25,1.67-13.87,2.46l-4.26.72c-3.91.66-7.81,1.32-11.7,2-2.2.36-4.39.69-6.59,1-3.15.49-6.3,1-9.44,1.48h0Z" transform="translate(6 11)" style="fill:#009686"/><path d="M1685.61,405c3.62,2.57,7.34,5,11.09,7.39l-.1,0a57.73,57.73,0,0,0,6.16,3.79c6,3.6,12.2,6.94,18.53,10.07,1.49,1.31,3,2.76,4.46,4.32,5.72-1.43,11.33-2.6,16.86-3.46,8.93-1.37,18.64-2.39,28.75-3.12a31,31,0,0,1-1.47-11.72c6.69-25.24,14.38-49.18,22.17-70.92,5.31-14.8,10.8-29,16.3-42.46h0l-5.38.1h0a963.4,963.4,0,0,0-35.36,102.58c-24.76,21.56-51.52,15.75-52.79,15.45a256.59,256.59,0,0,1-26.18-16.23c-28.27-20-50.61-44.39-68.28-70.53-1.65.63-3.29,1.28-4.94,1.93C1633.47,359.18,1656.43,384.36,1685.61,405Z" transform="translate(6 11)" style="fill:#009686"/><path d="M1795.72,708c-4.06-5.8-19.08-15.48-35.43-25.15-.2-1.67-.46-3.36-.81-5.07,5.82-10.58,2.73-27.54-8.56-41.6-10.89-13.57-26.05-20.28-37.52-17.69-9.88-4.86-19.87-6.89-28.66-5.66-10.23-17.14-20.92-34-28.61-38.81-16-9.94-28.1,1.73-30.26,41.92-.1,1.86-.24,3.72-.39,5.59-2.52-.88-5.06-1.72-7.63-2.49h0q-5.31-1.59-10.75-2.84c-.86-.2-1.72-.41-2.59-.6-1.48-.32-3-.63-4.48-.92-1.23-.23-2.46-.45-3.7-.66s-2.55-.45-3.83-.64c-2.42-.36-4.85-.66-7.29-.92-1-.11-1.91-.18-2.86-.27-1.89-.17-3.8-.32-5.71-.43-.88-.06-1.75-.11-2.63-.15-2.75-.12-5.5-.21-8.28-.21-2.39,0-4.77.08-7.14.18-1.49.06-3,.14-4.46.23h0a181.44,181.44,0,0,0-157.49,115.36h0c-.94,2.42-1.82,4.87-2.66,7.35l-.12.34q-1.21,3.63-2.3,7.33l-.12.43c-.71,2.48-1.38,5-2,7.49,0,.06,0,.13,0,.2a181.34,181.34,0,0,0,21.46,136.9c-10.46,15.68-18.45,27.47-21.82,30.83-11.66,11.67-26.36,12.54-44.51,22.48s-12.1,28.52-12.1,28.52c3.46,13.4,22,5.62,36.73-7.35,8.12-7.16,12.81-11.68,20.48-16.55,0,0,0,.12.1.17a1.29,1.29,0,0,0,1,.45,1.27,1.27,0,0,0,.85-.32c.09-.07,2-1.69,5-4.35,5.29-2.86,11.94-6.06,21-10.08,5.23-2.32,12.19-5.66,20.27-9.64a180.75,180.75,0,0,0,109.69,51.86h0c3,.29,6,.52,9,.67s6.09.23,9.16.23c2.75,0,5.48-.08,8.2-.2l2.21-.11c2.57-.15,5.14-.33,7.68-.59.74-.07,1.48-.17,2.23-.26,1.79-.2,3.58-.42,5.36-.68,1.16-.16,2.33-.33,3.48-.52,1.6-.26,3.18-.55,4.76-.85q2.89-.55,5.77-1.19c.94-.22,1.89-.43,2.83-.66a181,181,0,0,0,87-49.42h0c2.46-2.51,4.84-5.11,7.15-7.76l1.17-1.35q5.31-6.21,10-12.88c.13-.17.25-.35.38-.53a180.5,180.5,0,0,0,33.07-104.36,183.09,183.09,0,0,0-1.55-23.44h0a180.18,180.18,0,0,0-4.33-22.54c7.4-.67,14.58-1.32,21.25-2C1801.77,740.36,1804.8,720.92,1795.72,708ZM1475.1,792.72a90.58,90.58,0,0,1,30.63-67.89l.27-.23c1.07-.94,2.15-1.85,3.26-2.73l.49-.39c1-.82,2.12-1.63,3.21-2.41l.61-.43c1.07-.76,2.16-1.49,3.26-2.2l.66-.42c1.12-.7,2.26-1.38,3.41-2,.2-.12.4-.24.61-.35,1.22-.68,2.45-1.34,3.7-2l.43-.22a90.68,90.68,0,0,1,72.1-3.5c-3.3,7.12-6.31,13.94-6.86,16.36l0,.09c-.46.56-.89,1.16-1.35,1.7-3.84,4.54-9.16,7.78-15.5,10.5-.1,0-38.78,7.84-54.59,19.61h0a108.38,108.38,0,0,0-18.4,11.49c-7.32,5.7-16.27,15.6-25.91,27.7C1475.14,794.51,1475.1,793.62,1475.1,792.72Zm90.61,90.61a91.53,91.53,0,0,1-14.43-1.15c-2-.32-3.91-.71-5.84-1.15-.57-.13-1.15-.25-1.72-.4-.76-.19-1.52-.4-2.28-.61-.57-.16-1.14-.31-1.7-.48l-2.26-.71-1.61-.55c-.77-.27-1.53-.54-2.28-.83-.49-.18-1-.37-1.45-.57-.79-.31-1.58-.63-2.36-1l-.46-.21c16.82-8.1,32.06-15,43-19.09a56,56,0,0,0,14.34-8h0s28.41-20.28,36.5-47.79c5.63-9.68,10.88-18.71,16.35-25.39,2.71-1.63,7.76-4.62,13.32-7.73.17.6.35,1.19.51,1.79q.73,2.76,1.29,5.58c0,.09,0,.17.05.26.32,1.64.58,3.3.81,5,.06.45.12.9.17,1.35.17,1.37.31,2.75.41,4.14,0,.49.09,1,.12,1.48.1,1.81.17,3.63.17,5.47s-.06,3.48-.15,5.21c0,.42-.07.84-.1,1.26-.1,1.35-.21,2.69-.37,4,0,.39-.1.76-.14,1.14-.19,1.44-.4,2.86-.65,4.28-.05.23-.09.47-.13.71-.31,1.65-.66,3.3-1,4.92A90.64,90.64,0,0,1,1565.71,883.33Zm82.85-270.93c1.75-3.87,12.13,2.28,20.16,7.82a31.82,31.82,0,0,0-9.42,17.12c-.8-.48-1.62-.92-2.43-1.39l-.17-.1-1.86-1.07C1650.78,625.56,1647.11,615.6,1648.56,612.4Zm121.28,108.73c-2.82,1.65-11.9-.51-20.86-3.31a30.75,30.75,0,0,0,10.39-16.68C1765.84,708.64,1773.64,718.93,1769.84,721.13Z" transform="translate(6 11)" style="fill:#004541;opacity:0.45"/><path d="M1182.24,1079.94c.85-1,1.67-2,2.48-3l.19-.24c.77-1,1.52-2,2.24-3l.28-.39c.7-1,1.37-2,2-3l.34-.53c.62-1,1.23-2,1.81-3,.14-.23.27-.46.4-.7.56-1,1.09-1.94,1.61-2.93.15-.28.3-.57.44-.86q.74-1.43,1.41-2.88c.16-.34.31-.69.47-1,.41-.93.82-1.86,1.21-2.8.16-.41.32-.83.49-1.24.35-.9.69-1.8,1-2.71.17-.48.32-1,.48-1.43.29-.87.58-1.74.85-2.63.16-.54.31-1.09.47-1.63.23-.83.47-1.66.68-2.51.15-.61.29-1.24.43-1.87s.36-1.57.52-2.36.25-1.4.38-2.11.27-1.47.38-2.22.2-1.58.3-2.37.18-1.35.25-2c.09-.94.15-1.88.21-2.82,0-.56.09-1.1.12-1.66.08-1.5.12-3,.12-4.54,0-2-.09-3.93-.21-5.87,0-.45-.07-.9-.11-1.35-.14-1.78-.32-3.55-.57-5.3,0-.13,0-.27,0-.4a90.21,90.21,0,0,0-89.26-77.28c-1.15,0-2.29,0-3.43.09h0a90.07,90.07,0,0,0-20.38,3.11l-.28.08c-1.48.41-3,.86-4.4,1.34l-.58.2c-1.37.46-2.73,1-4.08,1.49l-.6.24c-1.38.56-2.74,1.15-4.09,1.77l-.38.17a91.75,91.75,0,0,0-12.76,7.3c-.16.11-.31.23-.48.34-1.12.78-2.23,1.59-3.31,2.42-.31.23-.61.48-.91.72-.94.73-1.85,1.48-2.76,2.24l-1,.9c-.85.74-1.69,1.51-2.51,2.29-.33.32-.67.63-1,1-.84.81-1.65,1.65-2.46,2.49-.28.3-.57.59-.85.9-.93,1-1.83,2-2.71,3.08l-.39.45a90.16,90.16,0,0,0-3.8,110.32v0a91.49,91.49,0,0,0,10.87,12.47l.28.27a91.34,91.34,0,0,0,12.74,10.08l.66.42c1.3.83,2.61,1.63,4,2.39l.73.42a89.2,89.2,0,0,0,9.59,4.64c.32.14.66.26,1,.39,1.3.52,2.61,1,3.94,1.46l1.34.46q2,.66,4.11,1.23l1,.29c1.71.44,3.43.85,5.18,1.2l1,.18c1.4.26,2.8.49,4.22.69.56.08,1.12.15,1.69.21,1.27.16,2.55.28,3.85.38l1.62.13c1.8.1,3.6.17,5.43.17a90,90,0,0,0,68.49-31.54Z" transform="translate(6 11)" style="fill:#004541;opacity:0.45"/><path d="M1166.72,784.4,1057.65,659.46l-16.94,10.08L1051,683.15,934.81,773.3h0l-8.16-16.51-15.56,12.1,63.82,140.77c20.68,13.38,19.62-8.61,19.62-8.61L1137,788.49l12,7.08C1168.14,799.82,1166.72,784.4,1166.72,784.4Zm-106.53-89.13L1084,726.75h0L958,820.23l-17.34-35.08,119.52-89.88ZM987.61,880.1l-17.23-34.85h0l129.52-97.56,19.39,25.61Z" transform="translate(6 11)" style="fill:#004541;opacity:0.45"/><path d="M960.71,404.33c-12.63-15.16-40.42-39-55-37.31s-18.42,21.57-1.23,58,24.39,56,42.7,56.63l12.18,24.46L807.18,624.86,785.76,601.2c6-17.29-9.51-31.12-37.17-60.4s-47.54-32.95-54.46-20,5.19,47.54,14.7,64.83S911.09,768.89,911.09,768.89c16.42,0,15.56-12.1,15.56-12.1l-22.66-25,122.09-91.61-.29-.59,14.92,30s11,5.22,16.94-10.08C1057.65,659.46,973.35,419.48,960.71,404.33Zm12.55,129.72,17.6,35.35L853.66,676.18,825,644.57ZM891.84,718.34l-22.67-25,134.07-99,13.21,26.53Z" transform="translate(6 11)" style="fill:#c8eaf4"/><polygon points="897.84 729.35 903.82 736.24 1026.99 640.72 1022.45 631.81 897.84 729.35" style="fill:#a4d1d8"/><polygon points="859.66 687.18 866.18 694.64 1001.17 592.06 996.86 580.4 859.66 687.18" style="fill:#a4d1d8"/><polygon points="813.18 635.86 821.58 647.28 972.37 528.35 965.35 517.1 813.18 635.86" style="fill:#a4d1d8"/><path d="M785.76,602.61a1.41,1.41,0,0,0,1-2.45l-65-60.72a1.42,1.42,0,1,0-1.94,2.07l65,60.72A1.38,1.38,0,0,0,785.76,602.61Z" transform="translate(6 11)" style="fill:#45939c"/><path d="M945.83,482.1a1.4,1.4,0,0,0,1.34.95,1.24,1.24,0,0,0,.46-.08,1.41,1.41,0,0,0,.87-1.8l-30.11-86.53a1.42,1.42,0,0,0-2.68.93Z" transform="translate(6 11)" style="fill:#45939c"/><path d="M824,645.52a1.42,1.42,0,0,0,1,.47,1.39,1.39,0,0,0,1-.37,1.41,1.41,0,0,0,.1-2l-17.85-19.71a1.42,1.42,0,0,0-2.1,1.9Z" transform="translate(6 11)" style="fill:#45939c"/><path d="M996.5,580.57l-4.32-11.66a1.41,1.41,0,1,0-2.65,1l4,10.68L891,658.45a1.42,1.42,0,0,0,.86,2.55,1.46,1.46,0,0,0,.86-.29L996,582.19A1.41,1.41,0,0,0,996.5,580.57Z" transform="translate(6 11)" style="fill:#45939c"/><path d="M1050.78,635.79,977.65,437.88a1.41,1.41,0,1,0-2.65,1l73.13,197.91a1.42,1.42,0,0,0,1.32.93,1.37,1.37,0,0,0,.49-.09A1.41,1.41,0,0,0,1050.78,635.79Z" transform="translate(6 11)" style="fill:#45939c"/><path d="M737.8,613.44a1.41,1.41,0,1,0-1.88,2.11l142.63,127a1.43,1.43,0,0,0,1,.36,1.42,1.42,0,0,0,.94-2.47Z" transform="translate(6 11)" style="fill:#45939c"/><path d="M1006.53,639.15,897,724.12a1.43,1.43,0,0,0-.25,2,1.44,1.44,0,0,0,2,.25l109.57-85a1.42,1.42,0,0,0-1.73-2.24Z" transform="translate(6 11)" style="fill:#45939c"/><path d="M659.14,732.87a1.4,1.4,0,0,0-1.7,1c-14.45,62.21-18,119.9-21.07,170.81-3,49.48-6,77.21-10.49,95.69a2,2,0,0,0,0,.34,52.73,52.73,0,0,1-3.86,12.67,53.31,53.31,0,0,1-6,11.71,1.41,1.41,0,0,0,.34,2,1.44,1.44,0,0,0,.81.26,1.39,1.39,0,0,0,1.16-.61,54.86,54.86,0,0,0,6.31-12.28c3.49-8.28,4-13.36,4.07-13.57v0c4.46-18.65,7.51-46.5,10.52-96,3.09-50.79,6.6-108.35,21-170.32A1.42,1.42,0,0,0,659.14,732.87Z" transform="translate(6 11)" style="fill:#00685c"/><path d="M1556.85,301.23a1.43,1.43,0,0,0-1.93-.57c-125.86,68.64-332.53,100.89-471.26,107.66a1.42,1.42,0,0,0,.07,2.83h.07c139-6.78,346.19-39.14,472.48-108A1.42,1.42,0,0,0,1556.85,301.23Z" transform="translate(6 11)" style="fill:#00685c"/><circle cx="1076.97" cy="965.72" r="90.2" style="fill:#fff"/><path d="M1157.62,929.65c-38.36-1.11-86.65,25.07-86.65,25.07s49,6.23,65.8,61.67a90.09,90.09,0,0,0,20.85-86.74Z" transform="translate(6 11)" style="fill:#ff8140"/><path d="M1071,954.72s-10.57-47.52-3.42-90.11a90.06,90.06,0,0,0-69,36.31C1026.12,931.72,1071,954.72,1071,954.72Z" transform="translate(6 11)" style="fill:#ff8140"/><path d="M1071,954.72c-14,25.89-44.67,40.2-76.31,48.07a90.11,90.11,0,0,0,76.31,42.13c1.4,0,2.78,0,4.16-.1C1092.58,994.58,1071,954.72,1071,954.72Z" transform="translate(6 11)" style="fill:#ff8140"/><path d="M1537.19,541.34a181.37,181.37,0,1,0,181.37,181.37A181.37,181.37,0,0,0,1537.19,541.34Zm0,272a90.61,90.61,0,1,1,90.61-90.61A90.61,90.61,0,0,1,1537.19,813.32Z" transform="translate(6 11)" style="fill:#fff"/><path d="M1399.16,689.86a32.82,32.82,0,0,0-31.06-32.75A180.82,180.82,0,0,0,1355.86,721a32.79,32.79,0,0,0,43.3-31.12Z" transform="translate(6 11)" style="fill:#ff8691"/><path d="M1556.65,585.21a32.85,32.85,0,0,0,32.85-32.85,31.47,31.47,0,0,0-.18-3.38,181.21,181.21,0,0,0-52.13-7.64c-3.9,0-7.76.16-11.6.4a32.79,32.79,0,0,0,31.06,43.47Z" transform="translate(6 11)" style="fill:#ff8691"/><path d="M1681.81,721.62a32.8,32.8,0,0,0-57-22.16,90.78,90.78,0,0,1,.42,44.79,32.81,32.81,0,0,0,56.61-22.63Z" transform="translate(6 11)" style="fill:#ff8691"/><path d="M1666.38,845a32.91,32.91,0,0,0,.35,4.58,181.83,181.83,0,0,0,28-37.09A32.83,32.83,0,0,0,1666.38,845Z" transform="translate(6 11)" style="fill:#ff8691"/><path d="M1551.35,864.9a32.84,32.84,0,0,0-32.84,32.84,33.43,33.43,0,0,0,.48,5.43q9,.9,18.2.91a181.2,181.2,0,0,0,47-6.19s0-.1,0-.15A32.84,32.84,0,0,0,1551.35,864.9Z" transform="translate(6 11)" style="fill:#ff8691"/><path d="M1470.85,784.4a38.28,38.28,0,1,0,52.2,27.82A90.43,90.43,0,0,1,1470.85,784.4Z" transform="translate(6 11)" style="fill:#ff8691"/><path d="M1515.14,634.81a38.29,38.29,0,1,0-58.28,46A90.76,90.76,0,0,1,1515.14,634.81Z" transform="translate(6 11)" style="fill:#ff8691"/><path d="M1618.6,560.65c-9.49,31.08-54.26,64.75-54.26,64.75-19.58-5.83-56.15-13.51-93.87,13.88s-35.79,83.43-35.79,83.43l-23.06,50.8,87.25,33.11s46.15,23.64,95.72-5.53,39.08-85.58,39.08-85.58c29.32-22.43,82.14-16.38,83.33-16.24A181.42,181.42,0,0,0,1618.6,560.65Zm-81.41,252.67a90.61,90.61,0,1,1,90.61-90.61A90.61,90.61,0,0,1,1537.19,813.32Z" transform="translate(6 11)" style="fill:#251a29;opacity:0.25"/><path d="M1538.48,541.34a1.3,1.3,0,0,0-1.29-1.3c-100.73,0-182.67,81.94-182.67,182.67a1.3,1.3,0,0,0,2.59,0c0-99.3,80.78-180.08,180.08-180.08A1.29,1.29,0,0,0,1538.48,541.34Z" transform="translate(6 11)" style="fill:#ff8691"/><path d="M1537.19,630.8a92,92,0,0,0-91.91,91.91,1.3,1.3,0,0,0,2.59,0,89.32,89.32,0,1,1,178.63,0,1.3,1.3,0,0,0,2.6,0A92,92,0,0,0,1537.19,630.8Z" transform="translate(6 11)" style="fill:#ff8691"/><path d="M1767.2,637.94c-9.08-13-73-45.38-83.85-53.6S1643.59,513.9,1627.6,504s-28.09,1.73-30.25,41.92-14.7,84.71-36.31,110.21c-15.53,18.33-55.21,15.66-88.49,41.6s-100.37,138.62-112,150.29-26.36,12.53-44.51,22.47S1303.89,899,1303.89,899c3.46,13.39,22,5.61,36.74-7.35s18.15-17.29,48.4-30.69,117.56-60.5,154.73-74.33,52.29-69.15,72.6-86.93c22-19.22,78.23-20.69,117.56-25S1776.27,650.9,1767.2,637.94ZM1635,582.69s-17.83-33.86-14.91-40.3,29.82,14.94,29.82,14.94Zm106.37,68.43c-6.12,3.56-41.61-10.72-41.61-10.72l23.7-17.42S1747.43,647.56,1741.32,651.12Z" transform="translate(6 11)" style="fill:#ffbda5"/><path d="M1506.62,739.63c-24.57,12-63.68,54.48-82.48,74.91l-4.72,5.11c-16.3,17.58-57.67,53.41-58.08,53.77a1.3,1.3,0,0,0,.85,2.28,1.28,1.28,0,0,0,.84-.32c.42-.36,41.9-36.29,58.29-54l4.73-5.13c18.69-20.31,57.58-62.57,81.7-74.33a1.29,1.29,0,1,0-1.13-2.33Z" transform="translate(6 11)" style="fill:#ff8691"/><path d="M1662,637.26c-12.7,1.9-21.22.09-25.32-5.37-6.91-9.23.8-26.17.88-26.34a1.3,1.3,0,0,0-2.35-1.09c-.35.75-8.44,18.51-.61,29,3.56,4.76,9.76,7.14,18.49,7.14a63.38,63.38,0,0,0,9.29-.75,1.29,1.29,0,1,0-.38-2.56Z" transform="translate(6 11)" style="fill:#ff8691"/><path d="M1634.3,594.29s-20.1,26.57-30.14,25.93-25.15-2.66-25.15-2.66-15.34,31-16.65,36.74c0,0,17.48,43.5,46.49,52.36,0,0,28.11-17.2,37.26-19.37,0,0-2.09-23.31,2.45-27.53s28.85-23.66,28.85-23.66l-5.19-5.51-24,18.91a24.07,24.07,0,0,1-11.47,5c-5.86.84-13.75.2-19.31-7.08-10.45-13.65,21.71-45.38,21.71-45.38Z" transform="translate(6 11)" style="fill:#46334d"/><path d="M1491,686.19s-12.88,36.52,16.23,54.6c0,0,4.6,41.66,50.92,37.79,0,0,28.41-20.28,36.49-47.79,0,0-37.95-24.65-49-64.21C1545.55,666.58,1506.79,674.41,1491,686.19Z" transform="translate(6 11)" style="fill:#46334d"/><path d="M1528.91,726.84l-22.06,13.4a.65.65,0,0,0,.33,1.2.67.67,0,0,0,.34-.09l22.06-13.4a.64.64,0,0,0,.22-.89A.66.66,0,0,0,1528.91,726.84Z" transform="translate(6 11)" style="fill:#1f1424"/><path d="M1537.83,671.34a.65.65,0,1,0-1.28.18c.06.46,7.09,45.76,51,66.84a.67.67,0,0,0,.28.06.64.64,0,0,0,.58-.36.65.65,0,0,0-.3-.87C1544.84,716.42,1537.89,671.78,1537.83,671.34Z" transform="translate(6 11)" style="fill:#1f1424"/><path d="M1610.83,694.66c-35.67-21.61-29.34-59.81-29.21-60.31a.65.65,0,0,0-.41-.81.66.66,0,0,0-.83.41c-.12.36-6.37,39.92,29.78,61.82a.69.69,0,0,0,.34.09.65.65,0,0,0,.55-.31A.64.64,0,0,0,1610.83,694.66Z" transform="translate(6 11)" style="fill:#1f1424"/><path d="M1722.4,566.11c-10.89-13.56-26.06-20.27-37.52-17.69-16-7.84-32.21-8.33-43.22.43-18.11,14.4-15.15,48.24,6.6,75.57s54,37.82,72.15,23.42c10.61-8.44,13.94-23.56,10.54-40.12C1736.77,597.13,1733.68,580.18,1722.4,566.11Z" transform="translate(6 11)" style="fill:#fff"/><path d="M1731.55,607.34a.71.71,0,0,0-1-.22c-1,.64-25.22,15.42-48.19-15.51-8.1-10.91-11.12-20.58-9-28.73,2.55-9.64,11.66-13.77,11.75-13.81a.7.7,0,0,0,.36-.93.72.72,0,0,0-.93-.37c-.4.18-9.81,4.43-12.54,14.73-2.27,8.59.82,18.67,9.19,30,11.87,16,24.29,20,33.8,20a33.28,33.28,0,0,0,16.29-4.14A.7.7,0,0,0,1731.55,607.34Z" transform="translate(6 11)" style="fill:#ff8691"/><g style="opacity:0.45"><path d="M1915.79,779.31q5.28,5.93,10.21,11.23V773.22Z" transform="translate(6 11)" style="fill:#004541"/><path d="M1910.23,595.31l6.33,34.36-21.23-38.94a302.36,302.36,0,0,0-57.31-11l8.46,15-17.91-15.57c-19.36-.82-29.64,1.43-29.64,1.43A262,262,0,0,0,1815.71,632l30.77,9h-26.7a447.89,447.89,0,0,0,29.57,52.69L1902.4,709l-45.8-4.33c9,13.17,18.28,25.73,27.52,37.46l41.88,3.2V600.88C1920.59,598.86,1915.33,597,1910.23,595.31Z" transform="translate(6 11)" style="fill:#004541"/><path d="M1893.81,753.67q6.12,7.46,12,14.32L1926,763.9v-17Z" transform="translate(6 11)" style="fill:#004541"/><path d="M1649.79,460.2a216.78,216.78,0,0,1,32.21-6.49h0l63.11-59.45-31.84,58a217.94,217.94,0,0,1,52,7.92l7-61.2,7.2,65.6a277.86,277.86,0,0,1,49.13,22.68l1.79-41.2,9.22,47.9c7.05,4.49,13.83,9.18,20.37,14l-14-87.32,43.64,111.58A469.81,469.81,0,0,1,1926,568.75V350C1712.57,313.49,1649.79,460.2,1649.79,460.2Z" transform="translate(6 11)" style="fill:#004541"/><path d="M1828.64,251.28c9.8-1.07,19.71.64,29.47,4.27h0l38.23-9.41-24.74,15.66a160.11,160.11,0,0,1,25.51,17.88L1909,256.9v33.52c6,5.83,11.73,11.89,17,17.88v-67C1866,223.53,1828.64,251.28,1828.64,251.28Z" transform="translate(6 11)" style="fill:#004541"/></g><path d="M1900,530.47,1888.89,486q-8.66-3.25-16.77-5.93l6.32,34.36-21.23-38.95a302.21,302.21,0,0,0-57.31-11l8.46,15-17.91-15.57c-19.36-.82-29.64,1.43-29.64,1.43a262.61,262.61,0,0,0,16.78,51.42l30.77,9.22h-26.7a467.94,467.94,0,0,0,29.57,52.44l53,15.26-45.8-4.33c9,13.17,18.28,25.73,27.52,37.46l49,3.74-39.3,8.32q6.12,7.46,12,14.32l43.84-8.91-33.92,20.23c26.59,29.79,47,48.44,47.33,48.44V501.23c-8.62-3.93-16.63-7.43-25-10.6Z" transform="translate(6 11)" style="fill:#00eaf2"/><path d="M1612.87,345.44A217.21,217.21,0,0,1,1645,339h0l62.94-59.29-31.75,57.83a217.36,217.36,0,0,1,51.85,7.91l7-61,7.19,65.42a277,277,0,0,1,49,22.62l1.79-41.09,9.19,47.78c7,4.47,13.8,9.15,20.32,14L1808.56,306l43.53,111.28c46,41.33,72.91,83.24,72.91,83.24V243.28C1682.57,182.47,1612.87,345.44,1612.87,345.44Z" transform="translate(6 11)" style="fill:#00eaf2"/><path d="M1790.9,136.35c9.9-1.07,19.9.65,29.75,4.31h0l38.59-9.49-25,15.8A160.67,160.67,0,0,1,1860,165l12-23v33.84c31.44,30.37,54,67,54,67V142C1844.28,96.67,1790.9,136.35,1790.9,136.35Z" transform="translate(6 11)" style="fill:#00eaf2"/><path d="M1747.56,1081s-14.12-28.42-44.78-57.51l-7.33,36-3.84-45.91A226.55,226.55,0,0,0,1654,987.86v29.84l-13.08-36.34a215.09,215.09,0,0,0-66.31-18.25s-4,11.21-4.88,30l33.79,17.48-33.83-4.2a173.35,173.35,0,0,0,5,35.12l37.14,8.7-33.78,3.18a201.66,201.66,0,0,0,11.09,27.58Z" transform="translate(6 11)" style="fill:#00eaf2"/><path d="M1467.05,1068.91a178.34,178.34,0,0,1,17.27,15.09H1594s-90.28-57-180.78-44.11c0,0,19.6,5.86,42.73,21.11h31.16Z" transform="translate(6 11)" style="fill:#00eaf2"/><path d="M244.79,974.29q4.78-7,8.73-13.78l-38.11-7,45.26-6.13c21.3-42.63,19-73.43,19-73.43-19.17-2.63-40.36-1.27-62.28,2.75l-66.28,68.1L190,882.94c-15.51,4.17-31.11,9.37-46.38,15.16l-43.88,54,20.92-44.73c-16.58,7-32.45,14.5-47,21.82l-32.46,82.9,6-69.07C15.06,960.41-6,974.21-6,974.21V1083l122.85,0c45.25-24.62,78-50.82,101.59-76h-43Z" transform="translate(6 11)" style="fill:#00eaf2"/><path d="M468.68,1081a224.65,224.65,0,0,0-57.43-37.29L361.08,1063l24-29.07a246.55,246.55,0,0,0-66-10.29L256.3,1063l26.14-37.92C191,1034.2,116.13,1081,116.13,1081Z" transform="translate(6 11)" style="fill:#00eaf2"/><path d="M12.66,902.66a253.34,253.34,0,0,1,16.45-37L11,861.32,34.24,857c8.59-13.43,18.72-24.45,30.55-30.4,0,0-33.94-6.94-70.79,12.21v135A447.58,447.58,0,0,1,11.12,907l-5.79-3Z" transform="translate(6 11)" style="fill:#00eaf2"/><path d="M1920.15,591.9l-147.8-121.36a1.42,1.42,0,0,0-1.8,2.19l147.81,121.36a1.37,1.37,0,0,0,.89.32,1.41,1.41,0,0,0,.9-2.51Z" transform="translate(6 11)" style="fill:#d6f3f2"/><path d="M1585.27,974.33a1.42,1.42,0,0,0-2.14,1.87l82.18,94.19a1.41,1.41,0,0,0,1.07.48,1.38,1.38,0,0,0,.93-.35,1.41,1.41,0,0,0,.13-2Z" transform="translate(6 11)" style="fill:#d6f3f2"/><path d="M258.93,891.76,4.07,1068.55a2.83,2.83,0,0,0,1.62,5.15,2.81,2.81,0,0,0,1.61-.5L262.16,896.41a2.83,2.83,0,1,0-3.23-4.65Z" transform="translate(6 11)" style="fill:#d6f3f2"/></g></g></svg>