<svg xmlns="http://www.w3.org/2000/svg" viewBox="0 0 593 573.08"><g id="Layer_2" data-name="Layer 2"><g id="Layer_1-2" data-name="Layer 1"><polygon points="593 287.01 568.64 375.44 536.39 461.3 464.65 518.47 388.15 569.07 296.5 573.08 204.85 569.07 128.35 518.47 56.61 461.3 24.36 375.44 0 287.01 24.36 198.59 56.61 112.72 128.35 55.55 204.85 4.95 296.5 0.94 388.14 4.95 464.65 55.55 536.39 112.72 568.64 198.59 593 287.01" style="fill:#ffb943"/><path d="M519.06,215.62l-26.59-71L434.54,98.45,371.37,56.58,296.5,53.3l-74.87,3.28-61.8,40.87-59.3,47.17L74.48,214,54.27,287l19.67,71.4,26.59,71,57.92,46.16,63.18,41.88,74.87,3.27,74.87-3.27,61.8-40.88,59.3-47.16,26-69.34L538.72,287ZM482.18,347.34l-22,58.58-49,39L359,479.46l-62.53,2.73L234,479.46l-52.2-34.53-49-39-22-58.58L94.2,287l16.62-60.33,22-58.58,49-39L234,94.57l62.53-2.74L359,94.57l52.19,34.52,49,39,22,58.58L498.8,287Z" style="fill:#ffd8a1"/><polygon points="277.25 287.75 278.8 282.13 280.93 276.43 56.61 113.46 24.36 199.32 0 287.75 277.25 287.75 277.25 287.75" style="fill:#f09529"/><polygon points="280.93 298.33 280.93 298.32 56.61 461.3 128.35 518.47 204.85 569.07 290.55 305.32 285.68 302.11 280.93 298.33" style="fill:#f09529"/><polygon points="307.51 301.96 302.45 305.32 388.15 569.07 464.65 518.47 536.39 461.3 312.07 298.32 307.51 301.96" style="fill:#f09529"/><polygon points="314.12 281.89 315.75 287.75 315.75 287.75 593 287.75 568.64 199.32 536.39 113.46 312.07 276.43 314.12 281.89" style="fill:#f09529"/><polygon points="388.14 4.95 296.5 0.94 204.85 4.95 290.55 268.7 290.55 268.7 296.38 268.45 302.45 268.7 302.45 268.7 388.14 4.95" style="fill:#f09529"/><path d="M312.07,298.32h0l2.13-5.69,1.55-5.62h0l-1.63-5.85-2.05-5.46h0l-4.76-3.78-4.86-3.22h0l-6.07-.25-5.83.25h0l-5.06,3.36-4.56,3.64h0l-2.13,5.69L277.25,287h0l1.63,5.86,2.05,5.46h0l4.75,3.77,4.87,3.22h0l5.95.26,5.95-.26h0l5.06-3.36Zm-7.79-.8-3.59,2.37h0l-4.18.19-4.19-.19h0l-3.4-2.23L285.54,295h0l-1.44-3.8L283,287h0l1.06-3.92,1.52-4h0l3.18-2.54,3.59-2.38h0l4.07-.19,4.3.19h0l3.39,2.24,3.38,2.68h0l1.44,3.8L310,287h0L309,290.93l-1.51,4h0Z" style="fill:#ffd8a1"/><polygon points="94.2 287.75 110.82 227.41 132.82 168.84 132.83 168.84 100.52 145.36 74.48 214.69 54.27 287.75 54.27 287.75 94.2 287.75 94.2 287.75" style="fill:#fcaf64"/><polygon points="233.97 479.46 181.78 444.93 132.83 405.93 100.52 429.4 100.53 429.41 158.45 475.57 221.63 517.45 233.97 479.46 233.97 479.46" style="fill:#fcaf64"/><polygon points="492.47 429.69 492.48 429.69 460.17 406.22 411.22 445.23 359.03 479.75 359.03 479.75 371.37 517.74 433.17 476.86 492.47 429.69" style="fill:#fcaf64"/><polygon points="460.18 168.84 482.18 227.41 498.8 287.75 498.8 287.75 538.72 287.75 538.72 287.75 519.06 216.35 492.48 145.36 460.17 168.83 460.18 168.84" style="fill:#fcaf64"/><polygon points="233.97 94.57 296.5 91.83 359.03 94.57 371.37 56.58 371.37 56.58 296.5 53.3 221.63 56.58 221.63 56.58 233.97 94.57 233.97 94.57" style="fill:#fcaf64"/><path d="M388.21,4,302.38,0,264.75,1.83a1.38,1.38,0,0,0,.06,2.75h.07l37.5-1.83,85.7,4h.07A1.38,1.38,0,0,0,388.21,4Z" style="fill:#c1741f"/><path d="M101.33,143.51a1.37,1.37,0,1,0-1.61,2.22l180.4,131.08a1.35,1.35,0,0,0,.81.26,1.37,1.37,0,0,0,.81-2.48Z" style="fill:#c1741f"/><path d="M280.12,297.21,132,404.81a1.38,1.38,0,0,0,.8,2.49,1.34,1.34,0,0,0,.81-.27L281.74,299.44a1.38,1.38,0,0,0-1.62-2.23Z" style="fill:#c1741f"/><path d="M96,284.75H52.45a1.5,1.5,0,1,0,0,3H96a1.5,1.5,0,0,0,0-3Z" style="fill:#c1741f"/><path d="M129.2,56.63a1.37,1.37,0,0,0-1.71-2.15L55.75,111.65a1.41,1.41,0,0,0-.43.59L23.07,198.1a1.37,1.37,0,1,0,2.57,1l32.12-85.51Z" style="fill:#c1741f"/><path d="M249.31,146.23a1.38,1.38,0,0,0,1.31,1,1.23,1.23,0,0,0,.42-.07,1.37,1.37,0,0,0,.88-1.73L206.16,4.53a1.37,1.37,0,1,0-2.61.84Z" style="fill:#c1741f"/></g></g></svg>